<svg xmlns="http://www.w3.org/2000/svg" xmlns:xlink="http://www.w3.org/1999/xlink" viewBox="0 0 34 39.26"><defs><style>.cls-1,.cls-13,.cls-3,.cls-4,.cls-5,.cls-6,.cls-7,.cls-9{fill:none;}.cls-2{clip-path:url(#clip-path);}.cls-3{stroke:#1fd5b1;}.cls-3,.cls-4,.cls-5,.cls-6,.cls-7{stroke-linecap:round;stroke-linejoin:round;stroke-width:2px;stroke-dasharray:0 8;}.cls-4{stroke:#21d5b2;}.cls-5{stroke:#23d6b3;}.cls-6{stroke:#26d6b3;}.cls-7{stroke:#28d7b4;}.cls-8{clip-path:url(#clip-path-2);}.cls-9{stroke:#1ed6b3;stroke-width:0.75px;}.cls-13,.cls-9{stroke-miterlimit:10;}.cls-10{fill:#2940f9;}.cls-11{fill:url(#New_Pattern_29);}.cls-12{fill:url(#New_Pattern_28);}.cls-13{stroke:#fff;}</style><clipPath id="clip-path"><rect class="cls-1" width="250.94" height="167.67"/></clipPath><clipPath id="clip-path-2"><rect class="cls-1" width="506.34" height="360.01"/></clipPath><pattern id="New_Pattern_29" data-name="New Pattern 29" width="506.34" height="360.01" patternTransform="translate(-333.7 -730.24) rotate(180) scale(0.46)" patternUnits="userSpaceOnUse" viewBox="0 0 506.34 360.01"><rect class="cls-1" width="506.34" height="360.01"/><g class="cls-8"><line class="cls-9" x1="253.17" y1="-180" x2="-253.17" y2="180"/><line class="cls-9" x1="258.03" y1="-176.54" x2="-248.31" y2="183.47"/><line class="cls-9" x1="262.89" y1="-173.08" x2="-243.45" y2="186.93"/><line class="cls-9" x1="267.75" y1="-169.62" x2="-238.59" y2="190.39"/><line class="cls-9" x1="272.61" y1="-166.16" x2="-233.73" y2="193.85"/><line class="cls-9" x1="277.47" y1="-162.7" x2="-228.87" y2="197.31"/><line class="cls-9" x1="282.33" y1="-159.23" x2="-224.01" y2="200.77"/><line class="cls-9" x1="287.19" y1="-155.77" x2="-219.15" y2="204.24"/><line class="cls-9" x1="292.05" y1="-152.31" x2="-214.29" y2="207.7"/><line class="cls-9" x1="296.91" y1="-148.85" x2="-209.43" y2="211.16"/><line class="cls-9" x1="301.77" y1="-145.39" x2="-204.57" y2="214.62"/><line class="cls-9" x1="306.62" y1="-141.93" x2="-199.71" y2="218.08"/><line class="cls-9" x1="311.48" y1="-138.46" x2="-194.85" y2="221.54"/><line class="cls-9" x1="316.34" y1="-135" x2="-189.99" y2="225.01"/><line class="cls-9" x1="321.2" y1="-131.54" x2="-185.13" y2="228.47"/><line class="cls-9" x1="326.06" y1="-128.08" x2="-180.27" y2="231.93"/><line class="cls-9" x1="330.92" y1="-124.62" x2="-175.41" y2="235.39"/><line class="cls-9" x1="335.78" y1="-121.16" x2="-170.55" y2="238.85"/><line class="cls-9" x1="340.64" y1="-117.69" x2="-165.69" y2="242.31"/><line class="cls-9" x1="345.5" y1="-114.23" x2="-160.83" y2="245.77"/><line class="cls-9" x1="350.36" y1="-110.77" x2="-155.97" y2="249.24"/><line class="cls-9" x1="355.22" y1="-107.31" x2="-151.11" y2="252.7"/><line class="cls-9" x1="360.08" y1="-103.85" x2="-146.25" y2="256.16"/><line class="cls-9" x1="364.94" y1="-100.39" x2="-141.4" y2="259.62"/><line class="cls-9" x1="369.8" y1="-96.92" x2="-136.54" y2="263.08"/><line class="cls-9" x1="374.66" y1="-93.46" x2="-131.68" y2="266.54"/><line class="cls-9" x1="379.52" y1="-90" x2="-126.82" y2="270.01"/><line class="cls-9" x1="384.38" y1="-86.54" x2="-121.96" y2="273.47"/><line class="cls-9" x1="389.24" y1="-83.08" x2="-117.1" y2="276.93"/><line class="cls-9" x1="394.1" y1="-79.62" x2="-112.24" y2="280.39"/><line class="cls-9" x1="398.96" y1="-76.16" x2="-107.38" y2="283.85"/><line class="cls-9" x1="403.82" y1="-72.69" x2="-102.52" y2="287.31"/><line class="cls-9" x1="408.68" y1="-69.23" x2="-97.66" y2="290.78"/><line class="cls-9" x1="413.54" y1="-65.77" x2="-92.8" y2="294.24"/><line class="cls-9" x1="418.4" y1="-62.31" x2="-87.94" y2="297.7"/><line class="cls-9" x1="423.26" y1="-58.85" x2="-83.08" y2="301.16"/><line class="cls-9" x1="428.12" y1="-55.39" x2="-78.22" y2="304.62"/><line class="cls-9" x1="432.98" y1="-51.92" x2="-73.36" y2="308.08"/><line class="cls-9" x1="437.84" y1="-48.46" x2="-68.5" y2="311.55"/><line class="cls-9" x1="442.7" y1="-45" x2="-63.64" y2="315.01"/><line class="cls-9" x1="447.56" y1="-41.54" x2="-58.78" y2="318.47"/><line class="cls-9" x1="452.42" y1="-38.08" x2="-53.92" y2="321.93"/><line class="cls-9" x1="457.28" y1="-34.62" x2="-49.06" y2="325.39"/><line class="cls-9" x1="462.14" y1="-31.15" x2="-44.2" y2="328.85"/><line class="cls-9" x1="466.99" y1="-27.69" x2="-39.34" y2="332.32"/><line class="cls-9" x1="471.85" y1="-24.23" x2="-34.48" y2="335.78"/><line class="cls-9" x1="476.71" y1="-20.77" x2="-29.62" y2="339.24"/><line class="cls-9" x1="481.57" y1="-17.31" x2="-24.76" y2="342.7"/><line class="cls-9" x1="486.43" y1="-13.85" x2="-19.9" y2="346.16"/><line class="cls-9" x1="491.29" y1="-10.38" x2="-15.04" y2="349.62"/><line class="cls-9" x1="496.15" y1="-6.92" x2="-10.18" y2="353.08"/><line class="cls-9" x1="501.01" y1="-3.46" x2="-5.32" y2="356.55"/><line class="cls-9" x1="505.87" x2="-0.46" y2="360.01"/><line class="cls-9" x1="510.73" y1="3.46" x2="4.4" y2="363.47"/><line class="cls-9" x1="515.59" y1="6.92" x2="9.26" y2="366.93"/><line class="cls-9" x1="520.45" y1="10.39" x2="14.11" y2="370.39"/><line class="cls-9" x1="525.31" y1="13.85" x2="18.97" y2="373.85"/><line class="cls-9" x1="530.17" y1="17.31" x2="23.83" y2="377.32"/><line class="cls-9" x1="535.03" y1="20.77" x2="28.69" y2="380.78"/><line class="cls-9" x1="539.89" y1="24.23" x2="33.55" y2="384.24"/><line class="cls-9" x1="544.75" y1="27.69" x2="38.41" y2="387.7"/><line class="cls-9" x1="549.61" y1="31.15" x2="43.27" y2="391.16"/><line class="cls-9" x1="554.47" y1="34.62" x2="48.13" y2="394.62"/><line class="cls-9" x1="559.33" y1="38.08" x2="52.99" y2="398.09"/><line class="cls-9" x1="564.19" y1="41.54" x2="57.85" y2="401.55"/><line class="cls-9" x1="569.05" y1="45" x2="62.71" y2="405.01"/><line class="cls-9" x1="573.91" y1="48.46" x2="67.57" y2="408.47"/><line class="cls-9" x1="578.77" y1="51.92" x2="72.43" y2="411.93"/><line class="cls-9" x1="583.63" y1="55.39" x2="77.29" y2="415.39"/><line class="cls-9" x1="588.49" y1="58.85" x2="82.15" y2="418.86"/><line class="cls-9" x1="593.35" y1="62.31" x2="87.01" y2="422.32"/><line class="cls-9" x1="598.21" y1="65.77" x2="91.87" y2="425.78"/><line class="cls-9" x1="603.07" y1="69.23" x2="96.73" y2="429.24"/><line class="cls-9" x1="607.93" y1="72.69" x2="101.59" y2="432.7"/><line class="cls-9" x1="612.79" y1="76.16" x2="106.45" y2="436.16"/><line class="cls-9" x1="617.65" y1="79.62" x2="111.31" y2="439.63"/><line class="cls-9" x1="622.5" y1="83.08" x2="116.17" y2="443.09"/><line class="cls-9" x1="627.36" y1="86.54" x2="121.03" y2="446.55"/><line class="cls-9" x1="632.22" y1="90" x2="125.89" y2="450.01"/><line class="cls-9" x1="637.08" y1="93.46" x2="130.75" y2="453.47"/><line class="cls-9" x1="641.94" y1="96.93" x2="135.61" y2="456.93"/><line class="cls-9" x1="646.8" y1="100.39" x2="140.47" y2="460.39"/><line class="cls-9" x1="651.66" y1="103.85" x2="145.33" y2="463.86"/><line class="cls-9" x1="656.52" y1="107.31" x2="150.19" y2="467.32"/><line class="cls-9" x1="661.38" y1="110.77" x2="155.05" y2="470.78"/><line class="cls-9" x1="666.24" y1="114.23" x2="159.91" y2="474.24"/><line class="cls-9" x1="671.1" y1="117.7" x2="164.77" y2="477.7"/><line class="cls-9" x1="675.96" y1="121.16" x2="169.63" y2="481.16"/><line class="cls-9" x1="680.82" y1="124.62" x2="174.48" y2="484.63"/><line class="cls-9" x1="685.68" y1="128.08" x2="179.34" y2="488.09"/><line class="cls-9" x1="690.54" y1="131.54" x2="184.2" y2="491.55"/><line class="cls-9" x1="695.4" y1="135" x2="189.06" y2="495.01"/><line class="cls-9" x1="700.26" y1="138.46" x2="193.92" y2="498.47"/><line class="cls-9" x1="705.12" y1="141.93" x2="198.78" y2="501.93"/><line class="cls-9" x1="709.98" y1="145.39" x2="203.64" y2="505.4"/><line class="cls-9" x1="714.84" y1="148.85" x2="208.5" y2="508.86"/><line class="cls-9" x1="719.7" y1="152.31" x2="213.36" y2="512.32"/><line class="cls-9" x1="724.56" y1="155.77" x2="218.22" y2="515.78"/><line class="cls-9" x1="729.42" y1="159.23" x2="223.08" y2="519.24"/><line class="cls-9" x1="734.28" y1="162.7" x2="227.94" y2="522.7"/><line class="cls-9" x1="739.14" y1="166.16" x2="232.8" y2="526.17"/><line class="cls-9" x1="744" y1="169.62" x2="237.66" y2="529.63"/><line class="cls-9" x1="748.86" y1="173.08" x2="242.52" y2="533.09"/><line class="cls-9" x1="753.72" y1="176.54" x2="247.38" y2="536.55"/><line class="cls-9" x1="758.58" y1="180" x2="252.24" y2="540.01"/></g></pattern><pattern id="New_Pattern_28" data-name="New Pattern 28" width="250.94" height="167.67" patternTransform="matrix(0.47, 0, 0, -0.47, -355.46, -1195.4)" patternUnits="userSpaceOnUse" viewBox="0 0 250.94 167.67"><rect class="cls-1" width="250.94" height="167.67"/><g class="cls-2"><line class="cls-3" x1="-125.47" y1="83.83" x2="125.47" y2="-83.24"/><line class="cls-3" x1="-119.49" y1="87.82" x2="131.44" y2="-79.26"/><line class="cls-3" x1="-113.52" y1="91.8" x2="137.42" y2="-75.27"/><line class="cls-3" x1="-107.54" y1="95.79" x2="143.39" y2="-71.29"/><line class="cls-3" x1="-101.57" y1="99.77" x2="149.37" y2="-67.3"/><line class="cls-3" x1="-95.6" y1="103.76" x2="155.34" y2="-63.32"/><line class="cls-4" x1="-89.62" y1="107.74" x2="161.32" y2="-59.33"/><line class="cls-4" x1="-83.65" y1="111.73" x2="167.29" y2="-55.35"/><line class="cls-4" x1="-77.67" y1="115.71" x2="173.27" y2="-51.36"/><line class="cls-4" x1="-71.7" y1="119.7" x2="179.24" y2="-47.38"/><line class="cls-4" x1="-65.72" y1="123.68" x2="185.22" y2="-43.39"/><line class="cls-4" x1="-59.75" y1="127.67" x2="191.19" y2="-39.41"/><line class="cls-4" x1="-53.77" y1="131.65" x2="197.16" y2="-35.42"/><line class="cls-4" x1="-47.8" y1="135.64" x2="203.14" y2="-31.44"/><line class="cls-4" x1="-41.82" y1="139.62" x2="209.11" y2="-27.45"/><line class="cls-4" x1="-35.85" y1="143.61" x2="215.09" y2="-23.47"/><line class="cls-4" x1="-29.87" y1="147.59" x2="221.06" y2="-19.48"/><line class="cls-5" x1="-23.9" y1="151.58" x2="227.04" y2="-15.5"/><line class="cls-5" x1="-17.92" y1="155.56" x2="233.01" y2="-11.51"/><line class="cls-4" x1="-11.95" y1="159.55" x2="238.99" y2="-7.53"/><line class="cls-5" x1="-5.97" y1="163.53" x2="244.96" y2="-3.54"/><line class="cls-5" y1="167.52" x2="250.94" y2="0.44"/><line class="cls-5" x1="5.97" y1="171.5" x2="256.91" y2="4.43"/><line class="cls-5" x1="11.95" y1="175.49" x2="262.89" y2="8.41"/><line class="cls-5" x1="17.92" y1="179.47" x2="268.86" y2="12.4"/><line class="cls-5" x1="23.9" y1="183.46" x2="274.84" y2="16.38"/><line class="cls-5" x1="29.87" y1="187.44" x2="280.81" y2="20.37"/><line class="cls-5" x1="35.85" y1="191.43" x2="286.79" y2="24.35"/><line class="cls-6" x1="41.82" y1="195.41" x2="292.76" y2="28.34"/><line class="cls-5" x1="47.8" y1="199.4" x2="298.73" y2="32.32"/><line class="cls-6" x1="53.77" y1="203.38" x2="304.71" y2="36.31"/><line class="cls-6" x1="59.75" y1="207.37" x2="310.68" y2="40.29"/><line class="cls-6" x1="65.72" y1="211.35" x2="316.66" y2="44.28"/><line class="cls-6" x1="71.7" y1="215.34" x2="322.63" y2="48.26"/><line class="cls-6" x1="77.67" y1="219.32" x2="328.61" y2="52.25"/><line class="cls-6" x1="83.65" y1="223.31" x2="334.58" y2="56.23"/><line class="cls-6" x1="89.62" y1="227.3" x2="340.56" y2="60.22"/><line class="cls-6" x1="95.59" y1="231.28" x2="346.53" y2="64.2"/><line class="cls-6" x1="101.57" y1="235.27" x2="352.51" y2="68.19"/><line class="cls-6" x1="107.54" y1="239.25" x2="358.48" y2="72.17"/><line class="cls-6" x1="113.52" y1="243.24" x2="364.46" y2="76.16"/><line class="cls-6" x1="119.49" y1="247.22" x2="370.43" y2="80.14"/><line class="cls-7" x1="125.47" y1="251.21" x2="376.41" y2="84.13"/></g></pattern></defs><title>bullet</title><g id="Layer_2" data-name="Layer 2"><g id="_4._Text" data-name="4. Text"><g id="body"><polygon class="cls-10" points="0.15 10.1 0.15 29.15 16.65 38.68 33.15 29.15 33.15 10.1 16.65 0.58 0.15 10.1"/><polygon class="cls-11" points="17 0.58 17 19.72 16.9 19.78 0.5 29.25 0.5 29.15 0.5 10.1 17 0.58"/><polygon class="cls-12" points="17.26 0.58 17.26 19.72 17.36 19.78 33.76 29.25 33.76 29.15 33.76 10.1 17.26 0.58"/><polygon class="cls-13" points="0.5 10.1 0.5 29.15 17 38.68 33.5 29.15 33.5 10.1 17 0.58 0.5 10.1"/><polyline class="cls-13" points="17 1.26 17 19.72 33.5 29.25 17 19.72 0.5 29.25"/></g></g></g></svg>